<mxfile host="app.diagrams.net" agent="Mozilla/5.0 (X11; Ubuntu; Linux x86_64; rv:137.0) Gecko/20100101 Firefox/137.0" version="26.2.14">
  <diagram name="PÃ¡gina-1" id="MbhoJPd47fW3or1zwNEj">
    <mxGraphModel dx="1072" dy="1247" grid="0" gridSize="10" guides="1" tooltips="1" connect="1" arrows="1" fold="1" page="0" pageScale="1" pageWidth="827" pageHeight="1169" math="0" shadow="0">
      <root>
        <mxCell id="0" />
        <mxCell id="1" parent="0" />
        <mxCell id="rAz1Z_C4FNxCO9JVljA4-4" value="" style="edgeStyle=none;curved=1;rounded=0;orthogonalLoop=1;jettySize=auto;html=1;fontSize=12;startSize=8;endSize=8;" edge="1" parent="1" source="rAz1Z_C4FNxCO9JVljA4-1" target="rAz1Z_C4FNxCO9JVljA4-3">
          <mxGeometry relative="1" as="geometry" />
        </mxCell>
        <mxCell id="rAz1Z_C4FNxCO9JVljA4-1" value="inicio" style="ellipse;whiteSpace=wrap;html=1;" vertex="1" parent="1">
          <mxGeometry x="102" y="-176" width="120" height="80" as="geometry" />
        </mxCell>
        <mxCell id="rAz1Z_C4FNxCO9JVljA4-8" value="" style="edgeStyle=none;curved=1;rounded=0;orthogonalLoop=1;jettySize=auto;html=1;fontSize=12;startSize=8;endSize=8;" edge="1" parent="1" source="rAz1Z_C4FNxCO9JVljA4-3" target="rAz1Z_C4FNxCO9JVljA4-7">
          <mxGeometry relative="1" as="geometry" />
        </mxCell>
        <mxCell id="rAz1Z_C4FNxCO9JVljA4-3" value="ingrese un numero" style="shape=parallelogram;perimeter=parallelogramPerimeter;whiteSpace=wrap;html=1;fixedSize=1;" vertex="1" parent="1">
          <mxGeometry x="80" y="32" width="160" height="60" as="geometry" />
        </mxCell>
        <mxCell id="rAz1Z_C4FNxCO9JVljA4-10" value="" style="edgeStyle=none;curved=1;rounded=0;orthogonalLoop=1;jettySize=auto;html=1;fontSize=12;startSize=8;endSize=8;" edge="1" parent="1" source="rAz1Z_C4FNxCO9JVljA4-7" target="rAz1Z_C4FNxCO9JVljA4-9">
          <mxGeometry relative="1" as="geometry" />
        </mxCell>
        <mxCell id="rAz1Z_C4FNxCO9JVljA4-11" value="si" style="edgeLabel;html=1;align=center;verticalAlign=middle;resizable=0;points=[];fontSize=12;" vertex="1" connectable="0" parent="rAz1Z_C4FNxCO9JVljA4-10">
          <mxGeometry x="-0.1271" y="4" relative="1" as="geometry">
            <mxPoint x="1" as="offset" />
          </mxGeometry>
        </mxCell>
        <mxCell id="rAz1Z_C4FNxCO9JVljA4-13" value="" style="edgeStyle=none;curved=1;rounded=0;orthogonalLoop=1;jettySize=auto;html=1;fontSize=12;startSize=8;endSize=8;" edge="1" parent="1" source="rAz1Z_C4FNxCO9JVljA4-7" target="rAz1Z_C4FNxCO9JVljA4-12">
          <mxGeometry relative="1" as="geometry" />
        </mxCell>
        <mxCell id="rAz1Z_C4FNxCO9JVljA4-14" value="no." style="edgeLabel;html=1;align=center;verticalAlign=middle;resizable=0;points=[];fontSize=12;" vertex="1" connectable="0" parent="rAz1Z_C4FNxCO9JVljA4-13">
          <mxGeometry x="-0.0172" y="-2" relative="1" as="geometry">
            <mxPoint x="1" y="1" as="offset" />
          </mxGeometry>
        </mxCell>
        <mxCell id="rAz1Z_C4FNxCO9JVljA4-7" value="1&amp;lt;= numero &amp;lt;=10" style="rhombus;whiteSpace=wrap;html=1;" vertex="1" parent="1">
          <mxGeometry x="86.5" y="164" width="151" height="93" as="geometry" />
        </mxCell>
        <mxCell id="rAz1Z_C4FNxCO9JVljA4-16" style="edgeStyle=none;curved=1;rounded=0;orthogonalLoop=1;jettySize=auto;html=1;entryX=0;entryY=0.5;entryDx=0;entryDy=0;fontSize=12;startSize=8;endSize=8;" edge="1" parent="1" source="rAz1Z_C4FNxCO9JVljA4-9" target="rAz1Z_C4FNxCO9JVljA4-15">
          <mxGeometry relative="1" as="geometry" />
        </mxCell>
        <mxCell id="rAz1Z_C4FNxCO9JVljA4-9" value="numero esta dentro de rango " style="shape=parallelogram;perimeter=parallelogramPerimeter;whiteSpace=wrap;html=1;fixedSize=1;" vertex="1" parent="1">
          <mxGeometry x="-204" y="180.5" width="155" height="60" as="geometry" />
        </mxCell>
        <mxCell id="rAz1Z_C4FNxCO9JVljA4-12" value="no esta dentro de rango " style="shape=parallelogram;perimeter=parallelogramPerimeter;whiteSpace=wrap;html=1;fixedSize=1;" vertex="1" parent="1">
          <mxGeometry x="373" y="180.5" width="200" height="60" as="geometry" />
        </mxCell>
        <mxCell id="rAz1Z_C4FNxCO9JVljA4-15" value="fin" style="ellipse;whiteSpace=wrap;html=1;" vertex="1" parent="1">
          <mxGeometry x="102" y="417" width="120" height="80" as="geometry" />
        </mxCell>
        <mxCell id="rAz1Z_C4FNxCO9JVljA4-17" style="edgeStyle=none;curved=1;rounded=0;orthogonalLoop=1;jettySize=auto;html=1;entryX=1;entryY=0.325;entryDx=0;entryDy=0;entryPerimeter=0;fontSize=12;startSize=8;endSize=8;" edge="1" parent="1" source="rAz1Z_C4FNxCO9JVljA4-12" target="rAz1Z_C4FNxCO9JVljA4-15">
          <mxGeometry relative="1" as="geometry" />
        </mxCell>
      </root>
    </mxGraphModel>
  </diagram>
</mxfile>
